<svg width="239" height="50" viewBox="0 0 239 50" fill="none" xmlns="http://www.w3.org/2000/svg">
<path d="M9.384 5.73602C14.6 5.73602 18.776 6.92002 21.912 9.28802C25.08 11.624 26.664 15.928 26.664 22.2C26.664 28.376 25.128 32.728 22.056 35.256C18.984 37.752 15 39 10.104 39H0.119995V5.73602H9.384ZM7.992 11.448V33.288H10.584C13.176 33.288 15.144 32.488 16.488 30.888C17.832 29.256 18.504 26.36 18.504 22.2C18.504 19.352 18.168 17.144 17.496 15.576C16.824 14.008 15.912 12.936 14.76 12.36C13.608 11.752 12.184 11.448 10.488 11.448H7.992Z" fill="#141414"/>
<path d="M38.8256 13.512V39H31.2416V13.512H38.8256ZM34.9856 0.0720215C36.2976 0.0720215 37.3696 0.488022 38.2016 1.32002C39.0656 2.12002 39.4976 3.14402 39.4976 4.39202C39.4976 5.64002 39.0656 6.68002 38.2016 7.51202C37.3696 8.31202 36.2976 8.71202 34.9856 8.71202C33.6736 8.71202 32.6016 8.31202 31.7696 7.51202C30.9376 6.68002 30.5216 5.64002 30.5216 4.39202C30.5216 3.14402 30.9376 2.12002 31.7696 1.32002C32.6016 0.488022 33.6736 0.0720215 34.9856 0.0720215Z" fill="#141414"/>
<path d="M55.8285 12.696C59.7325 12.696 62.7885 13.896 64.9965 16.296C67.2045 18.664 68.3085 21.992 68.3085 26.28C68.3085 29 67.7965 31.384 66.7725 33.432C65.7805 35.448 64.3405 37.016 62.4525 38.136C60.5965 39.256 58.3885 39.816 55.8285 39.816C51.9565 39.816 48.9005 38.632 46.6605 36.264C44.4525 33.864 43.3485 30.52 43.3485 26.232C43.3485 23.512 43.8445 21.144 44.8365 19.128C45.8605 17.08 47.3005 15.496 49.1565 14.376C51.0445 13.256 53.2685 12.696 55.8285 12.696ZM55.8285 18.264C54.2925 18.264 53.1405 18.92 52.3725 20.232C51.6045 21.512 51.2205 23.512 51.2205 26.232C51.2205 29.016 51.5885 31.048 52.3245 32.328C53.0925 33.608 54.2605 34.248 55.8285 34.248C57.3645 34.248 58.5165 33.608 59.2845 32.328C60.0525 31.016 60.4365 29 60.4365 26.28C60.4365 23.496 60.0525 21.464 59.2845 20.184C58.5485 18.904 57.3965 18.264 55.8285 18.264Z" fill="#141414"/>
<path d="M96.2917 15C94.6277 15.672 92.1797 16.008 88.9477 16.008C90.6117 16.712 91.8277 17.576 92.5957 18.6C93.3637 19.624 93.7477 20.952 93.7477 22.584C93.7477 24.216 93.3157 25.688 92.4517 27C91.5877 28.28 90.3397 29.288 88.7077 30.024C87.1077 30.76 85.2197 31.128 83.0437 31.128C82.0197 31.128 81.0437 31.032 80.1157 30.84C79.8597 30.968 79.6517 31.176 79.4917 31.464C79.3637 31.72 79.2997 31.992 79.2997 32.28C79.2997 32.76 79.4757 33.144 79.8277 33.432C80.2117 33.688 80.9637 33.816 82.0837 33.816H85.9237C87.8757 33.816 89.5877 34.136 91.0597 34.776C92.5317 35.416 93.6677 36.296 94.4677 37.416C95.2677 38.536 95.6677 39.8 95.6677 41.208C95.6677 43.864 94.5157 45.928 92.2117 47.4C89.9397 48.904 86.6437 49.656 82.3237 49.656C79.2197 49.656 76.7717 49.32 74.9797 48.648C73.1877 48.008 71.9237 47.096 71.1877 45.912C70.4837 44.728 70.1317 43.24 70.1317 41.448H76.9477C76.9477 42.216 77.0917 42.824 77.3797 43.272C77.6997 43.72 78.2597 44.056 79.0597 44.28C79.8597 44.504 81.0117 44.616 82.5157 44.616C84.5957 44.616 86.0357 44.36 86.8357 43.848C87.6357 43.368 88.0357 42.664 88.0357 41.736C88.0357 40.968 87.7317 40.36 87.1237 39.912C86.5157 39.464 85.6037 39.24 84.3877 39.24H80.6917C78.0677 39.24 76.0997 38.776 74.7877 37.848C73.5077 36.888 72.8677 35.672 72.8677 34.2C72.8677 33.272 73.1397 32.376 73.6837 31.512C74.2277 30.616 74.9637 29.88 75.8917 29.304C74.2917 28.44 73.1237 27.432 72.3877 26.28C71.6837 25.096 71.3317 23.672 71.3317 22.008C71.3317 19.16 72.3557 16.904 74.4037 15.24C76.4517 13.544 79.1557 12.696 82.5157 12.696C85.0757 12.76 87.2357 12.504 88.9957 11.928C90.7877 11.352 92.6277 10.504 94.5157 9.38402L96.2917 15ZM82.7077 17.688C81.5237 17.688 80.5797 18.072 79.8757 18.84C79.2037 19.576 78.8677 20.6 78.8677 21.912C78.8677 23.288 79.2037 24.36 79.8757 25.128C80.5797 25.864 81.5237 26.232 82.7077 26.232C83.9557 26.232 84.8997 25.864 85.5397 25.128C86.2117 24.392 86.5477 23.288 86.5477 21.816C86.5477 19.064 85.2677 17.688 82.7077 17.688Z" fill="#141414"/>
<path d="M109.219 12.696C113.123 12.696 116.179 13.896 118.387 16.296C120.595 18.664 121.699 21.992 121.699 26.28C121.699 29 121.187 31.384 120.163 33.432C119.171 35.448 117.731 37.016 115.843 38.136C113.987 39.256 111.779 39.816 109.219 39.816C105.347 39.816 102.291 38.632 100.051 36.264C97.8431 33.864 96.7391 30.52 96.7391 26.232C96.7391 23.512 97.2351 21.144 98.2271 19.128C99.2511 17.08 100.691 15.496 102.547 14.376C104.435 13.256 106.659 12.696 109.219 12.696ZM109.219 18.264C107.683 18.264 106.531 18.92 105.763 20.232C104.995 21.512 104.611 23.512 104.611 26.232C104.611 29.016 104.979 31.048 105.715 32.328C106.483 33.608 107.651 34.248 109.219 34.248C110.755 34.248 111.907 33.608 112.675 32.328C113.443 31.016 113.827 29 113.827 26.28C113.827 23.496 113.443 21.464 112.675 20.184C111.939 18.904 110.787 18.264 109.219 18.264Z" fill="#141414"/>
<path d="M145.617 5.73602V32.76H158.577L157.761 39H137.745V5.73602H145.617Z" fill="#141414"/>
<path d="M169.794 13.512V39H162.21V13.512H169.794ZM165.954 0.0720215C167.266 0.0720215 168.338 0.488022 169.17 1.32002C170.034 2.12002 170.466 3.14402 170.466 4.39202C170.466 5.64002 170.034 6.68002 169.17 7.51202C168.338 8.31202 167.266 8.71202 165.954 8.71202C164.642 8.71202 163.57 8.31202 162.738 7.51202C161.906 6.68002 161.49 5.64002 161.49 4.39202C161.49 3.14402 161.906 2.12002 162.738 1.32002C163.57 0.488022 164.642 0.0720215 165.954 0.0720215Z" fill="#141414"/>
<path d="M203.933 12.696C205.949 12.696 207.565 13.384 208.781 14.76C209.997 16.104 210.605 17.976 210.605 20.376V39H203.021V21.672C203.021 19.4 202.301 18.264 200.861 18.264C200.061 18.264 199.357 18.536 198.749 19.08C198.141 19.624 197.549 20.456 196.973 21.576V39H189.389V21.672C189.389 19.4 188.669 18.264 187.229 18.264C186.461 18.264 185.757 18.552 185.117 19.128C184.509 19.672 183.917 20.488 183.341 21.576V39H175.757V13.512H182.381L182.909 16.488C183.901 15.208 184.989 14.264 186.173 13.656C187.389 13.016 188.765 12.696 190.301 12.696C191.741 12.696 192.973 13.048 193.997 13.752C195.053 14.456 195.821 15.448 196.301 16.728C197.325 15.352 198.445 14.344 199.661 13.704C200.909 13.032 202.333 12.696 203.933 12.696Z" fill="#141414"/>
<path d="M236.56 31.608C236.56 32.568 236.688 33.272 236.944 33.72C237.232 34.168 237.68 34.504 238.288 34.728L236.704 39.672C235.136 39.544 233.856 39.208 232.864 38.664C231.872 38.088 231.104 37.192 230.56 35.976C228.896 38.536 226.336 39.816 222.88 39.816C220.352 39.816 218.336 39.08 216.832 37.608C215.328 36.136 214.576 34.216 214.576 31.848C214.576 29.064 215.6 26.936 217.648 25.464C219.696 23.992 222.656 23.256 226.528 23.256H229.12V22.152C229.12 20.648 228.8 19.624 228.16 19.08C227.52 18.504 226.4 18.216 224.8 18.216C223.968 18.216 222.96 18.344 221.776 18.6C220.592 18.824 219.376 19.144 218.128 19.56L216.4 14.568C218 13.96 219.632 13.496 221.296 13.176C222.992 12.856 224.56 12.696 226 12.696C229.648 12.696 232.32 13.448 234.016 14.952C235.712 16.456 236.56 18.712 236.56 21.72V31.608ZM225.088 34.392C226.816 34.392 228.16 33.576 229.12 31.944V27.432H227.248C225.52 27.432 224.224 27.736 223.36 28.344C222.528 28.952 222.112 29.896 222.112 31.176C222.112 32.2 222.368 33 222.88 33.576C223.424 34.12 224.16 34.392 225.088 34.392Z" fill="#141414"/>
</svg>
