<svg width="34" height="35" viewBox="0 0 34 35" fill="none" xmlns="http://www.w3.org/2000/svg">
<path d="M17.0582 8.26196C12.2434 8.26196 8.25397 12.1826 8.25397 17.0662C8.25397 21.9498 12.1746 25.8704 17.0582 25.8704C21.9418 25.8704 25.8624 21.881 25.8624 17.0662C25.8624 12.2514 21.873 8.26196 17.0582 8.26196ZM17.0582 22.7064C13.963 22.7064 11.418 20.1614 11.418 17.0662C11.418 13.971 13.963 11.426 17.0582 11.426C20.1534 11.426 22.6984 13.971 22.6984 17.0662C22.6984 20.1614 20.1534 22.7064 17.0582 22.7064Z" fill="white"/>
<path d="M26.2064 10.0502C27.308 10.0502 28.2011 9.15715 28.2011 8.0555C28.2011 6.95385 27.308 6.06079 26.2064 6.06079C25.1047 6.06079 24.2117 6.95385 24.2117 8.0555C24.2117 9.15715 25.1047 10.0502 26.2064 10.0502Z" fill="white"/>
<path d="M31.3651 2.89677C29.5767 1.03962 27.0317 0.0766602 24.1429 0.0766602H9.97354C3.98942 0.0766602 0 4.06608 0 10.0502V24.1507C0 27.1084 0.962963 29.6534 2.88889 31.5105C4.74603 33.2989 7.22222 34.1931 10.0423 34.1931H24.0741C27.0317 34.1931 29.5079 33.2301 31.2963 31.5105C33.1534 29.7222 34.1164 27.1772 34.1164 24.2195V10.0502C34.1164 7.16132 33.1534 4.68513 31.3651 2.89677ZM31.0899 24.2195C31.0899 26.3518 30.3333 28.0714 29.0952 29.2407C27.8571 30.41 26.1376 31.029 24.0741 31.029H10.0423C7.97884 31.029 6.25926 30.41 5.02116 29.2407C3.78307 28.0026 3.16402 26.283 3.16402 24.1507V10.0502C3.16402 7.98671 3.78307 6.26714 5.02116 5.02904C6.19048 3.85973 7.97884 3.24068 10.0423 3.24068H24.2116C26.2751 3.24068 27.9947 3.85973 29.2328 5.09782C30.4021 6.33592 31.0899 8.0555 31.0899 10.0502V24.2195Z" fill="white"/>
</svg>
