<svg width="35" height="36" viewBox="0 0 35 36" fill="none" xmlns="http://www.w3.org/2000/svg">
<path fill-rule="evenodd" clip-rule="evenodd" d="M29.8227 5.09742C26.5411 1.81201 22.177 0.001905 17.5273 0C7.94694 0 0.149507 7.7968 0.145767 17.3801C0.144427 20.4437 0.944808 23.4338 2.46591 26.0697L0 35.0766L9.21419 32.6596C11.7529 34.0443 14.6113 34.7742 17.5204 34.7752H17.5275C17.528 34.7752 17.527 34.7752 17.5276 34.7752C27.107 34.7752 34.9049 26.9776 34.9089 17.394C34.9106 12.7497 33.1043 8.38269 29.8227 5.09742ZM17.5274 31.8397H17.5215C14.9293 31.8387 12.3867 31.1422 10.1686 29.826L9.64112 29.5129L4.17328 30.9472L5.63279 25.6161L5.28926 25.0695C3.84316 22.7694 3.07939 20.1108 3.08052 17.3811C3.08363 9.41584 9.56457 2.9356 17.5332 2.9356C21.3919 2.9368 25.0192 4.44154 27.7468 7.17224C30.4744 9.90295 31.9757 13.5327 31.9741 17.3928C31.9709 25.3588 25.4901 31.8397 17.5274 31.8397Z" fill="white"/>
<path fill-rule="evenodd" clip-rule="evenodd" d="M25.4517 21.0199C25.0175 20.8025 22.8822 19.752 22.4841 19.6069C22.086 19.462 21.7965 19.3895 21.507 19.8243C21.2175 20.259 20.3851 21.2373 20.1318 21.5272C19.8785 21.8169 19.625 21.8534 19.1908 21.6358C18.7566 21.4184 17.3572 20.9599 15.6983 19.4803C14.4072 18.3286 13.5356 16.9065 13.2822 16.4716C13.0289 16.0369 13.2552 15.8019 13.4727 15.5853C13.668 15.3906 13.907 15.078 14.1242 14.8244C14.3413 14.5709 14.4137 14.3896 14.5585 14.0999C14.7032 13.81 14.6309 13.5564 14.5223 13.3391C14.4137 13.1217 13.5451 10.984 13.1833 10.1142C12.8306 9.26751 12.4726 9.38223 12.206 9.36875C11.953 9.35613 11.6631 9.35352 11.3736 9.35352C11.0842 9.35352 10.6136 9.46224 10.2156 9.89693C9.81748 10.3318 8.69543 11.3825 8.69543 13.52C8.69543 15.6578 10.2517 17.7229 10.4688 18.0127C10.6859 18.3027 13.5313 22.6893 17.888 24.5705C18.9241 25.018 19.7331 25.2852 20.3638 25.4853C21.4042 25.8159 22.351 25.7692 23.0993 25.6574C23.9338 25.5327 25.6689 24.6068 26.0308 23.5925C26.3927 22.5779 26.3927 21.7082 26.2841 21.5272C26.1755 21.346 25.886 21.2373 25.4517 21.0199Z" fill="white"/>
</svg>
